<?xml version="1.0" encoding="utf-8"?>
<!-- Generator: Adobe Illustrator 27.9.0, SVG Export Plug-In . SVG Version: 6.00 Build 0)  -->
<svg version="1.1" id="Layer_1" xmlns="http://www.w3.org/2000/svg" xmlns:xlink="http://www.w3.org/1999/xlink" x="0px" y="0px"
	 viewBox="0 0 1653.3 1623.6" style="enable-background:new 0 0 1653.3 1623.6;" xml:space="preserve">
<style type="text/css">
	.st0{fill-rule:evenodd;clip-rule:evenodd;}
	.st1{fill:#FF6600;}
	.st2{fill-rule:evenodd;clip-rule:evenodd;fill:#FFFFFF;}
	.st3{clip-path:url(#SVGID_00000096738991724851907170000002808391424542699447_);}
	.st4{clip-path:url(#SVGID_00000023976996307640004610000007733073555845927088_);}
	.st5{fill:url(#SVGID_00000172429491964677492200000002117542967340307881_);}
	.st6{fill:none;stroke:#332C2B;stroke-width:20;stroke-miterlimit:2.2926;}
</style>
<path class="st0" d="M115.5,376.1C98.6,283.6,94.4,177.3,103.3,59l3.5-46.5l46.3,3.8c109,8.9,233,61.6,333.6,139.4
	c47.1,36.4,89.3,78.5,123.1,124.4c70.5-4.8,139-3.6,209.4-3.5c70.5-0.1,138.9-1.3,209.4,3.5c33.8-46,76.1-88.1,123.1-124.4
	c100.7-77.9,224.6-130.6,333.6-139.4l46.3-3.8l3.5,46.5c8.9,118.4,4.7,224.6-12.2,317.2c-9.8,53.7-24,102.9-42.4,147.2l55.1-3.9
	c-43.8,49.4-63.1,75-86.1,116.3c14.4,12.9,27.9,28.1,40.7,45.7c59.3,81.5,81.4,189.1,118.2,280l-51-20.6
	c23.5,85.3,35.1,110.5,55.1,196.8l-47.1-32.2c28.7,70.8,23.4,77.9,54.3,169.6c-54-20-198.6,4.8-302,37.6
	c-187.8,59.5-208.7,79.9-330.8,235l-2.3-14.4c-19.2,21.9-40.3,39.4-62.6,52.3c-61.5,35.5-144.3,35.5-205.8,0
	c-22.3-12.9-43.4-30.4-62.6-52.3l-9.8,13.1c-122.1-155.1-135.5-174.1-323.3-233.6c-103.4-32.8-248.1-57.7-302-37.6
	c30.9-91.7,25.6-98.8,54.3-169.6L27.8,1134c20-86.3,29.7-107.9,53.2-193.2l-51,20.6c36.8-90.9,58.9-198.5,118.2-280
	c12.8-17.6,26.4-32.8,40.7-45.7c-17.8-39.2-38.4-66.1-90.1-113.6l59.1,1.2C139.5,479,125.3,429.9,115.5,376.1"/>
<path class="st1" d="M111.2,226.4c2,52.5,7.3,101.8,15.6,147.7c4.8,26.3,10.7,51.7,17.7,76c7,24.2,14.9,47.1,23.9,68.8l6.8,16.4
	l-46.9-1c15.3,15,27.3,28,37.2,40.6c14.5,18.3,24.5,35.6,33.8,56.1l3.5,7.7l-6.3,5.7c-6.7,6-13.4,12.7-20,20.2
	c-6.6,7.3-12.9,15.2-19.1,23.7c-40.1,55.1-63.1,123.3-85.4,189.8c-7.2,21.3-14.2,42.3-21.8,62.7l48-19.4l-6.2,22.5
	c-8.9,32.2-15.5,54.5-21.5,74.7c-8.5,28.7-15.8,53-25,90.5l51.6-32.6l-13.5,33.4c-15.9,39.3-21.2,58.5-28.1,83.8
	c-4.6,16.9-10,36.3-19.4,65.3c27.1-4.2,63.9-3,104.4,2.1c59.5,7.4,127.6,22.9,183.7,40.7c186.3,59,204.1,78.9,319.6,225.7l9.3-12.4
	l9.4,10.7c9.1,10.4,18.7,19.8,28.7,28.1c10.1,8.4,20.4,15.7,30.9,21.7c28.9,16.7,63,25,97.1,25c34.2,0,68.2-8.3,97.2-25
	c10.5-6.1,20.8-13.3,30.9-21.7c10-8.4,19.6-17.8,28.7-28.1l16.2-18.5l2.1,12.7c52.1-65.7,85.7-105.1,126.8-134.9
	c45.2-32.9,98.2-53.2,193.3-83.3c56.1-17.8,124.1-33.2,183.7-40.7c40.4-5,77.3-6.3,104.4-2.1c-9.4-29-14.7-48.5-19.4-65.3
	c-6.9-25.2-12.2-44.5-28.1-83.8l-14.4-35.5l54,36.9c-8.9-35.7-16.4-60.2-24.8-87.8c-6.7-22.1-14.1-46.2-23.2-79.5l-6.2-22.5l48,19.4
	c-7.5-20.4-14.6-41.4-21.8-62.7c-22.4-66.5-45.3-134.7-85.4-189.8c-6.2-8.5-12.5-16.4-19.1-23.7c-6.6-7.4-13.3-14.2-20-20.2
	l-6.9-6.1l4.5-8.1c11.7-21.1,22.5-38.2,36-56.4c9.3-12.5,19.9-25.6,33-40.8l-45.7,3.3l7.2-17.3c9-21.7,17-44.7,24-68.8
	c7-24.4,12.9-49.7,17.7-76c8.4-45.9,13.6-95.2,15.7-147.7c2-52.2,0.8-107.8-3.6-166.6l-2.6-34.9l-34.7,2.8
	c-52.9,4.3-109.6,19.2-165.3,42.5c-56.7,23.7-112.3,56-162.2,94.5c-23.4,18.1-45.7,37.7-66.3,58.5c-19.9,20.1-38.2,41.4-54.6,63.6
	l-3.8,5.1l-6.3-0.4c-59.4-4.1-117.1-3.8-175.8-3.6c-10.9,0-21.9,0.1-32.9,0.1c-11,0-22-0.1-32.9-0.1c-58.7-0.2-116.3-0.4-175.8,3.6
	l-6.3,0.4l-3.8-5.1c-16.3-22.2-34.7-43.5-54.6-63.6c-20.6-20.8-42.8-40.4-66.3-58.5C429.8,126.3,374.2,94,317.5,70.3
	C261.8,47,205.1,32.1,152.2,27.8L117.5,25l-2.6,34.9C110.4,118.6,109.2,174.2,111.2,226.4z M104.2,378.2c-8.6-46.9-13.9-97.4-16-151
	c-2.1-53.4-0.9-109.8,3.6-169.1L96.1,0L154,4.7c55.4,4.5,114.4,20,172.4,44.2c58.5,24.4,115.9,57.8,167.4,97.6
	c24.3,18.8,47.3,39,68.6,60.5c19.2,19.4,37,39.9,53,61.1c57.3-3.6,113.7-3.4,171-3.2c10.9,0,21.9,0.1,32.9,0.1c11,0,22-0.1,32.9-0.1
	c57.3-0.2,113.7-0.4,171,3.2c16-21.3,33.8-41.7,53-61.1c21.3-21.5,44.3-41.7,68.5-60.5c51.5-39.8,109-73.2,167.4-97.6
	c57.9-24.2,117-39.7,172.4-44.2l57.8-4.7l4.4,58.1c4.5,59.3,5.7,115.8,3.6,169.1c-2.1,53.6-7.4,104.1-16,151
	c-5,27.4-11.1,53.5-18.2,78.2c-5.4,18.7-11.4,36.7-18,54.1l64.9-4.7l-18.8,21.2c-21.7,24.4-37.3,42.9-50.2,60.4
	c-11.1,15-20.4,29.3-29.9,46c5.2,5,10.2,10.2,15.1,15.6c7,7.9,13.9,16.4,20.5,25.5c42.1,57.9,65.6,127.8,88.6,196.1
	c9.9,29.4,19.7,58.5,31,86.4l10.2,25.3l-54.5-22.1c6.2,21.9,11.7,39.7,16.7,56.3c10.7,35.2,19.9,65.4,32.2,118.4l6.7,28.8
	l-41.2-28.1c6.9,19.6,10.9,34.3,15.7,51.7c5.5,20,12,43.7,25.6,83.9l7.7,22.9l-22.7-8.4c-23.1-8.6-65.8-8.1-115-1.9
	c-58.1,7.2-124.6,22.4-179.5,39.8c-92.7,29.4-144,49-186.7,80c-42.7,31-78.1,74.4-138.4,151.1l-16.3,20.7l-2.8-17.5
	c-4.9,4.7-9.9,9.2-14.9,13.4c-10.9,9.1-22.4,17.1-34.3,24c-32.6,18.8-70.7,28.2-108.6,28.2c-38,0-76.1-9.4-108.6-28.2
	c-11.9-6.9-23.3-14.9-34.3-24c-7.4-6.2-14.6-12.9-21.7-20.2l-10.5,14l-13.1-16.7c-116.6-148.2-131.5-167.1-313.9-224.9
	c-54.8-17.4-121.4-32.5-179.5-39.8c-49.3-6.1-91.9-6.7-115,1.9L0,1294.3l7.7-22.9c13.6-40.2,20.1-63.9,25.6-83.9
	c4.9-18,9.1-33.1,16.4-53.6l-39.5,25l6.4-27.4c12.8-55,21.3-83.9,31.9-119.4c4.6-15.3,9.5-31.9,15.1-51.7L9,982.4l10.2-25.3
	c11.3-27.9,21.1-57,31-86.4c22.9-68.2,46.5-138.2,88.6-196.1c6.6-9.1,13.5-17.6,20.5-25.5c5-5.6,10.2-11,15.6-16.1
	c-7.6-15.6-15.9-29.3-27.4-43.8C134,572.2,116.4,554,91,530.7L68.5,510l72.2,1.5c-6.8-17.7-12.9-36-18.3-55
	C115.2,431.7,109.2,405.6,104.2,378.2L104.2,378.2"/>
<path class="st2" d="M1032.7,1306.8c2.3,44.4,2,81.1-0.8,110.1c81.6-103.7,254.5-168.4,518.6-194.1
	c-30.5-101.4-67.2-183.4-110.1-246.2c36.4,21.1,64.4,42.4,84,63.7c-23.4-101.6-52.3-195.2-86.9-281c24.3,16,43.7,32.4,57.9,49.2
	c-32.2-80.1-70.8-133.2-115.9-159.3c3.2-21.4,21.5-45.1,55-71c-70.8,14.9-124.8,35.7-162.2,62.3c-23.3-49.8-13.6-111.1,29-183.9
	c-27.9,6.5-50.6,14-68.1,22.4c105.5-105.9,34.8-273.7,244.1-416.4C1286,76.7,1037.9,247.9,990.6,440.6c3.9-57,11.6-95.1,23.2-114.4
	c-39.8-3-127.4-7.3-194.5-1.8c-67.1-5.5-154.7-1.2-194.5,1.8c11.6,19.3,19.3,57.4,23.2,114.4c-47.2-192.7-295.4-364-486.7-378.1
	C370.6,205.4,299.9,373.1,405.4,479c-17.4-8.5-40.1-16-68.1-22.4c42.6,72.9,52.2,134.2,29,183.9c-37.4-26.6-91.5-47.4-162.2-62.3
	c33.5,25.9,51.9,49.6,55,71c-45.1,26.1-83.7,79.2-115.9,159.3c14.3-16.8,33.6-33.2,57.9-49.2c-34.6,85.8-63.5,179.4-86.9,281
	c19.6-21.3,47.6-42.6,84-63.7c-42.9,62.8-79.6,144.9-110.1,246.2c264.1,25.7,436.9,90.4,518.5,194.1c-2.8-28.9-3-65.6-0.8-110.1
	c3.3,45,14.5,84.4,31.4,117.6c26.4,52.2,50.2,52.2,77.8,47.8c75.6-12.1,90.5-28.5,103.9-28.9c12.1-0.4,34.2,22.6,87.6,30.1
	c24.4,3.4,70.1-0.8,94.4-48.4C1018,1391.7,1029.3,1352.1,1032.7,1306.8"/>
<path class="st2" d="M689.8,1491.6c36.7,47,81.8,72.5,127.1,73.3c48.3,0.8,96.8-26.5,135.5-78c-17.1,6.1-34,6.2-45.8,4.6
	c-53.4-7.5-75.4-30.5-87.6-30.1c-13.4,0.4-28.3,16.8-103.9,28.9C706.3,1491.7,698,1492.6,689.8,1491.6"/>
<g>
	<defs>
		<rect id="SVGID_1_" x="88" y="62.5" width="128" height="128"/>
	</defs>
	<clipPath id="SVGID_00000066490544164894012610000000566566971715687307_">
		<use xlink:href="#SVGID_1_"  style="overflow:visible;"/>
	</clipPath>
	<g style="clip-path:url(#SVGID_00000066490544164894012610000000566566971715687307_);">
		<g>
			<defs>
				<path id="SVGID_00000119111003584192774100000000348937314620633266_" d="M1014,326.2c-11.6,19.3-19.3,57.4-23.2,114.4
					c47.2-192.7,295.4-364,486.7-378.1c-209.3,142.8-138.6,310.6-244.1,416.4c17.4-8.5,40.1-16,68.1-22.4
					c-42.6,72.9-52.2,134.2-29,183.9c37.4-26.6,91.5-47.4,162.2-62.3c-33.5,25.9-51.9,49.6-55,71c45.1,26.1,83.7,79.2,115.9,159.3
					c-14.3-16.8-33.6-33.2-57.9-49.2c34.6,85.8,63.5,179.4,86.9,281c-19.7-21.3-47.7-42.6-84-63.7c42.7,62.5,79.2,144.2,109.7,244.9
					c-120.9-89.2-386.9-127.9-526.9-83.3c-30,49-60.1,110.8-90.5,185.4c-35.5-77.3-191.5-77.3-227,0
					c-30.4-74.6-60.6-136.4-90.5-185.4c-140-44.5-406-5.9-526.9,83.3c30.4-100.7,67-182.4,109.7-244.9c-36.4,21.1-64.4,42.4-84,63.7
					c23.4-101.6,52.3-195.2,86.9-281c-24.3,16-43.7,32.4-57.9,49.2c32.2-80.1,70.8-133.2,115.9-159.3c-3.2-21.4-21.5-45.1-55-71
					c70.8,14.9,124.8,35.7,162.2,62.3c23.3-49.8,13.6-111.1-29-183.9c27.9,6.5,50.6,14,68.1,22.4
					C299.7,373.1,370.4,205.4,161.1,62.6c191.3,14.1,439.4,185.4,486.7,378.1c-3.9-57-11.6-95.1-23.2-114.4
					C685,321.6,953.6,321.6,1014,326.2"/>
			</defs>
			<clipPath id="SVGID_00000110443886977908219160000011138893977372483213_">
				<use xlink:href="#SVGID_00000119111003584192774100000000348937314620633266_"  style="overflow:visible;"/>
			</clipPath>
			<g style="clip-path:url(#SVGID_00000110443886977908219160000011138893977372483213_);">
				
					<linearGradient id="SVGID_00000141445084691837577620000000069478131166502797_" gradientUnits="userSpaceOnUse" x1="657.4746" y1="1062.7069" x2="658.7201" y2="1062.7069" gradientTransform="matrix(11.5887 1025.51 -1025.51 11.5887 1083009.375 -686507.75)">
					<stop  offset="0" style="stop-color:#F68221"/>
					<stop  offset="0.25" style="stop-color:#F68221"/>
					<stop  offset="0.2812" style="stop-color:#F68221"/>
					<stop  offset="0.2969" style="stop-color:#F68221"/>
					<stop  offset="0.3125" style="stop-color:#F68120"/>
					<stop  offset="0.3281" style="stop-color:#F68020"/>
					<stop  offset="0.3438" style="stop-color:#F7801F"/>
					<stop  offset="0.3594" style="stop-color:#F77F1E"/>
					<stop  offset="0.375" style="stop-color:#F77E1E"/>
					<stop  offset="0.3906" style="stop-color:#F77D1D"/>
					<stop  offset="0.4062" style="stop-color:#F77C1D"/>
					<stop  offset="0.4219" style="stop-color:#F77C1C"/>
					<stop  offset="0.4375" style="stop-color:#F87B1B"/>
					<stop  offset="0.4531" style="stop-color:#F87A1B"/>
					<stop  offset="0.4688" style="stop-color:#F8791A"/>
					<stop  offset="0.4844" style="stop-color:#F87919"/>
					<stop  offset="0.5" style="stop-color:#F87819"/>
					<stop  offset="0.5156" style="stop-color:#F87718"/>
					<stop  offset="0.5312" style="stop-color:#F97617"/>
					<stop  offset="0.5469" style="stop-color:#F97517"/>
					<stop  offset="0.5625" style="stop-color:#F97516"/>
					<stop  offset="0.5781" style="stop-color:#F97416"/>
					<stop  offset="0.5938" style="stop-color:#F97315"/>
					<stop  offset="0.6094" style="stop-color:#F97214"/>
					<stop  offset="0.625" style="stop-color:#FA7114"/>
					<stop  offset="0.6406" style="stop-color:#FA7113"/>
					<stop  offset="0.6562" style="stop-color:#FA7012"/>
					<stop  offset="0.6719" style="stop-color:#FA6F12"/>
					<stop  offset="0.6875" style="stop-color:#FA6E11"/>
					<stop  offset="0.7031" style="stop-color:#FB6D10"/>
					<stop  offset="0.7188" style="stop-color:#FB6D10"/>
					<stop  offset="0.7344" style="stop-color:#FB6C0F"/>
					<stop  offset="0.75" style="stop-color:#FB6B0E"/>
					<stop  offset="0.7656" style="stop-color:#FB6A0E"/>
					<stop  offset="0.7812" style="stop-color:#FB690D"/>
					<stop  offset="0.7969" style="stop-color:#FC690D"/>
					<stop  offset="0.8125" style="stop-color:#FC680C"/>
					<stop  offset="0.8281" style="stop-color:#FC670B"/>
					<stop  offset="0.8438" style="stop-color:#FC660B"/>
					<stop  offset="0.8594" style="stop-color:#FC650A"/>
					<stop  offset="0.875" style="stop-color:#FC6509"/>
					<stop  offset="0.8906" style="stop-color:#FD6409"/>
					<stop  offset="0.9062" style="stop-color:#FD6308"/>
					<stop  offset="0.9219" style="stop-color:#FD6207"/>
					<stop  offset="0.9375" style="stop-color:#FD6107"/>
					<stop  offset="0.9531" style="stop-color:#FD6106"/>
					<stop  offset="0.9688" style="stop-color:#FE6005"/>
					<stop  offset="0.9844" style="stop-color:#FE5F05"/>
					<stop  offset="1" style="stop-color:#FE5E04"/>
				</linearGradient>
				<path style="fill:url(#SVGID_00000141445084691837577620000000069478131166502797_);" d="M74.1,62.8l1475.9-16.7l14.4,1277.3
					L88.6,1340L74.1,62.8z"/>
			</g>
		</g>
	</g>
</g>
<path class="st0" d="M819.3,1422.9c51.2,3.6,104.9-52.3,113.9-99.5c-17.8-38.8-65.9-58.1-113.9-58c-48-0.1-96.1,19.2-113.9,58
	C715.4,1370.2,768,1426.6,819.3,1422.9"/>
<path class="st6" d="M819.3,1422.9c51.2,3.6,104.9-52.3,113.9-99.5c-17.8-38.8-65.9-58.1-113.9-58c-48-0.1-96.1,19.2-113.9,58
	C715.4,1370.2,768,1426.6,819.3,1422.9z"/>
<path class="st0" d="M159.9,62.4l2.5,1.1C370.1,206.1,299.9,373.4,405.2,479c-17.4-8.5-40.1-16-68.1-22.4
	c42.6,72.9,52.2,134.2,29,183.9c-27.5-19.5-63.9-35.9-109.4-49.2C176,472.3,142.6,292.3,159.9,62.4"/>
<path class="st0" d="M1481.3,62.4l-2.5,1.1C1271.1,206.1,1341.3,373.4,1236,479c17.4-8.5,40.1-16,68.1-22.4
	c-42.6,72.9-52.2,134.2-29,183.9c27.5-19.5,63.9-35.9,109.4-49.2C1465.2,472.3,1498.6,292.3,1481.3,62.4"/>
<path class="st0" d="M432.6,918.4c11.5,12.4,35.1,19.4,66.3,18.1c18.2,46.2,56.1,67.9,113.8,65.3c46-2.1,53.9,3,70.2,60
	c2.5-60.3-10.6-111.5-46.4-142.5c-33.1-28.8-86-41.2-139.8-5.2C468,919.4,446.7,920.9,432.6,918.4"/>
<path class="st0" d="M1206,918.4c-11.5,12.4-35.1,19.4-66.3,18.1c-18.2,46.2-56.1,67.9-113.8,65.3c-46-2.1-54,3-70.2,60
	c-2.5-60.3,10.6-111.5,46.4-142.5c33.1-28.8,86-41.2,139.8-5.2C1170.6,919.4,1191.9,920.9,1206,918.4"/>
<path class="st2" d="M512.5,926.5c58.1-31.4,134-2.1,141,59.1C596.7,995.5,533,975,512.5,926.5"/>
<path class="st2" d="M1126.1,926.5c-58.1-31.4-134-2.1-141,59.1C1041.9,995.5,1105.6,975,1126.1,926.5"/>
<path class="st0" d="M1081.5,825.5c-67.3-12.7-118,17.8-152.2,91.7C964.6,858.3,1015.3,827.7,1081.5,825.5z M557.1,825.5
	c67.3-12.7,118,17.8,152.1,91.7C674,858.3,623.3,827.7,557.1,825.5"/>
</svg>
